<svg id="Layer_1" data-name="Layer 1" xmlns="http://www.w3.org/2000/svg" viewBox="0 0 304.84 85.65"><defs><style>.cls-1{fill:#fff;}</style></defs><title>logo</title><path class="cls-1" d="M29.45,74.27a11.33,11.33,0,0,1-4.87-4.52,14.55,14.55,0,0,1-1.83-7.6A23,23,0,0,1,25.65,51a24,24,0,0,1,7.87-8.62A19.31,19.31,0,0,1,44.4,39.1a18.15,18.15,0,0,1,6,1,7.46,7.46,0,0,1,3.9,2.63A19.7,19.7,0,0,0,53.42,46,23,23,0,0,0,53,49.7l-1.25.2c0-.5,0-1.12-.08-1.85s-.12-1.4-.22-2a5.3,5.3,0,0,0-2-3.6,8.08,8.08,0,0,0-4.93-1.25,16.16,16.16,0,0,0-9.67,3.1,22.48,22.48,0,0,0-9.23,17.75,12.46,12.46,0,0,0,1.47,6.33,9.25,9.25,0,0,0,4,3.74,12.23,12.23,0,0,0,5.52,1.23,15.94,15.94,0,0,0,9.8-3.43,21,21,0,0,0,6.9-9.77c.9,0,1.35.62,1.35,1.85q0,2.59-2.6,5.88a21.78,21.78,0,0,1-6.88,5.57,18.76,18.76,0,0,1-9,2.3A15.1,15.1,0,0,1,29.45,74.27Z" transform="translate(-22.75 -19.5)"/><path class="cls-1" d="M93.85,22.88a8.73,8.73,0,0,1,2.5,6.67l-.35.6a9.34,9.34,0,0,0-3.45-5A9.72,9.72,0,0,0,86.9,23.5q-6.95,0-11.8,7.82T66.7,53.9l-1.3,5.65-.65,2.9A32.11,32.11,0,0,1,70,56.82q3.15-2.72,4.75-2.72.4,0,1.17.75c.52.5.78.87.78,1.1-.63,1.83-1.38,4.52-2.25,8a39,39,0,0,0-1.3,6.75,3.51,3.51,0,0,0,.45,2,2.17,2.17,0,0,0,1.85.63,7.63,7.63,0,0,0,4.85-1.9,21.67,21.67,0,0,0,4.07-4.33A31,31,0,0,0,87,62.9a1.05,1.05,0,0,1,.55.35,1.44,1.44,0,0,1,.25.75v.15a3.17,3.17,0,0,1-.4,1.4,23.06,23.06,0,0,1-5.9,7.07,11.31,11.31,0,0,1-7,2.88,3.7,3.7,0,0,1-2.8-1.1,4.31,4.31,0,0,1-1.05-3.1,23.5,23.5,0,0,1,.62-4.8q.63-2.85,1.68-6.7c0,.17.15-.52.55-2a.64.64,0,0,0-.25-.35.61.61,0,0,0-.35-.15c-.33,0-1.12.55-2.35,1.65a37,37,0,0,0-3.75,4,20.93,20.93,0,0,0-2.85,4.3c-.33,1.33-.67,3-1,5,0,.23-.07.48-.1.75a5.62,5.62,0,0,1-.15.8,6.4,6.4,0,0,1-.28,1.22.43.43,0,0,1-.42.33A3.68,3.68,0,0,1,60.6,75q-.75-.3-.75-.75a8.9,8.9,0,0,1,.3-1.9L64.5,53.85q3.65-15.6,9.3-24.47T87.05,20.5A9.44,9.44,0,0,1,93.85,22.88Z" transform="translate(-22.75 -19.5)"/><path class="cls-1" d="M113.6,64.65a8,8,0,0,1-2,4.85,18,18,0,0,1-4.9,4.27,10.41,10.41,0,0,1-5.27,1.73,3.77,3.77,0,0,1-3-1.2,5.41,5.41,0,0,1-1.25-3.1,10.22,10.22,0,0,1-3.15,3,6.73,6.73,0,0,1-3.4,1.15A4.48,4.48,0,0,1,88,74.42,7.18,7.18,0,0,1,86,72.27a5,5,0,0,1-.85-2.42l2.45-10.1a6.45,6.45,0,0,1,1.52-2.58,10.28,10.28,0,0,1,3-2.27A7.7,7.7,0,0,1,95.6,54a6,6,0,0,1,4.05,1.55,7.73,7.73,0,0,1,.67-1.5.93.93,0,0,1,.68-.35l2.45-.25.15.1a4.57,4.57,0,0,0-1.45,2.5q-1.55,5.81-2.13,8.55a24.23,24.23,0,0,0-.57,4.85,6.43,6.43,0,0,0,.55,3.07,2,2,0,0,0,1.85,1,7.86,7.86,0,0,0,3.82-1.3A17.54,17.54,0,0,0,113,63.35C113.38,63.35,113.6,63.78,113.6,64.65Zm-20.73,7.7a7.86,7.86,0,0,0,2.3-1.73,5.9,5.9,0,0,0,1.48-2.57L97.6,64c.13-.67.37-1.74.7-3.22s.6-2.63.8-3.43a4.64,4.64,0,0,0-3.4-1.4,4.9,4.9,0,0,0-2.8.83,7.11,7.11,0,0,0-2.05,2,6.23,6.23,0,0,0-1,2.07l-2,8.9a3.78,3.78,0,0,0,1,2.25,2.6,2.6,0,0,0,2,1A4.87,4.87,0,0,0,92.87,72.35Z" transform="translate(-22.75 -19.5)"/><path class="cls-1" d="M135.67,63.12a2.08,2.08,0,0,1,.23,1,8.67,8.67,0,0,1-1.9,4.55,19.33,19.33,0,0,1-4.83,4.8,10,10,0,0,1-5.77,2,4,4,0,0,1-2.78-.9,3.57,3.57,0,0,1-1-2.75,24.47,24.47,0,0,1,1.4-6.93c.93-2.91,1.78-5.34,2.55-7.27-.13-.2-.27-.3-.4-.3a.89.89,0,0,0-.45.15,23.23,23.23,0,0,0-3,2.45q-2.05,1.9-4,4a18.41,18.41,0,0,0-2.65,3.4c-.53,1.43-.87,2.34-1,2.72a11.93,11.93,0,0,0-.4,1.88l-.45,2.25a3.72,3.72,0,0,0-.1.37.3.3,0,0,1-.35.33,8.58,8.58,0,0,1-1.18-.1q-.72-.1-.72-.3a8.51,8.51,0,0,1,.35-2c.23-.9.47-1.72.7-2.45s.42-1.3.55-1.7L111,67c1-3.33,1.62-5.76,2-7.27s.7-3.21,1-5.08c0-.33.27-.5.7-.5a2.84,2.84,0,0,1,1,.23,1,1,0,0,1,.68.62c-.13.6-.38,1.62-.73,3s-.77,3-1.27,4.75a60.68,60.68,0,0,1,6-5.9q3.14-2.65,4.18-2.65a2.25,2.25,0,0,1,1.2.5,2.12,2.12,0,0,1,.85,1Q125,60,123.6,65.07a31.75,31.75,0,0,0-1.45,6.68c0,1.17.66,1.75,2,1.75q3,0,6-3.3A26.34,26.34,0,0,0,135,62.7.76.76,0,0,1,135.67,63.12Z" transform="translate(-22.75 -19.5)"/><path class="cls-1" d="M150.25,53.15a4.36,4.36,0,0,1,.67.62,1,1,0,0,1,.18.63,3.38,3.38,0,0,1-.2,1q-1,3.85-2.65,11.05c-.74,3.27-1.4,6.07-2,8.4a117.24,117.24,0,0,1-5.33,17,25.61,25.61,0,0,1-6.8,9.88A15.26,15.26,0,0,1,124,105.15a14.92,14.92,0,0,1-6.75-1.38,9.67,9.67,0,0,1-4-3.47,8,8,0,0,1-1.3-4.3,2.81,2.81,0,0,1,.1-.83,5,5,0,0,1,.5-1q3,8.05,11.6,8a13.1,13.1,0,0,0,9-3.18,24.35,24.35,0,0,0,6-8.95A109,109,0,0,0,144,74.9l.25-1c.06-.27.13-.52.2-.75s.11-.47.15-.7a10.21,10.21,0,0,1-3.25,2.1,8.65,8.65,0,0,1-3.1.75,4.37,4.37,0,0,1-2.53-.85,6.8,6.8,0,0,1-2-2.13,4.83,4.83,0,0,1-.75-2.47c.2-.8.43-1.82.7-3l.6-2.85,1.2-5.4a4.68,4.68,0,0,1,1.6-2.25,12.4,12.4,0,0,1,3.07-2,7.35,7.35,0,0,1,3-.8,4.3,4.3,0,0,1,2.65,1,9.71,9.71,0,0,1,2.3,2.65c.2-.93.38-2,.55-3.3l.25-1.65.2-.05A8.15,8.15,0,0,0,150.25,53.15Zm-2.8,6.65a10.2,10.2,0,0,0-2.18-2.95,3.64,3.64,0,0,0-2.37-1.1,4.82,4.82,0,0,0-2,.52,7.94,7.94,0,0,0-2.1,1.4,3.77,3.77,0,0,0-1.2,1.93q-.36,1.5-1.3,6.7l-.6,3.4a3.47,3.47,0,0,0,.87,2.25,2.6,2.6,0,0,0,2,1,7.35,7.35,0,0,0,2.4-.6,9.76,9.76,0,0,0,2.85-1.73,5,5,0,0,0,1.65-2.62Z" transform="translate(-22.75 -19.5)"/><path class="cls-1" d="M154.37,74.4a3.26,3.26,0,0,1-1.67-2.65,1.87,1.87,0,0,1,.45-1.3,1.8,1.8,0,0,1,1-.6A5.19,5.19,0,0,0,156,72.7a4.91,4.91,0,0,0,3.05,1,5,5,0,0,0,3.6-1.27,4,4,0,0,0,1.35-3,3.49,3.49,0,0,0-.73-2.2,15.64,15.64,0,0,0-2.17-2.2,16.93,16.93,0,0,1-2.38-2.43,4,4,0,0,1-.77-2.47,5.07,5.07,0,0,1,1-3,7.51,7.51,0,0,1,2.5-2.25,6.43,6.43,0,0,1,3.18-.85,5.86,5.86,0,0,1,2.67.62,1.89,1.89,0,0,1,1.23,1.68,3,3,0,0,1-1.2,2.1,5.15,5.15,0,0,0-1.6-1.78,3.64,3.64,0,0,0-2-.62,2.77,2.77,0,0,0-2.43,1.18,4,4,0,0,0-.82,2.32,2.5,2.5,0,0,0,.65,1.7,17.16,17.16,0,0,0,2,1.9,19.14,19.14,0,0,1,2.6,2.6,4.27,4.27,0,0,1,.9,2.7,6,6,0,0,1-1.08,3.3,8.46,8.46,0,0,1-3,2.73,8.19,8.19,0,0,1-4.12,1.07A7,7,0,0,1,154.37,74.4Z" transform="translate(-22.75 -19.5)"/><path class="cls-1" d="M195.6,64q0,2-2.58,4.67A25.38,25.38,0,0,1,187,73.23a12.93,12.93,0,0,1-5.85,1.92A6.57,6.57,0,0,1,177.2,74a9.09,9.09,0,0,1-2.53-2.63,5,5,0,0,1-.87-2.15q.8-2.85,1.75-7.9l.55-2.8a3.91,3.91,0,0,1,1.45-2.08,12.42,12.42,0,0,1,2.8-1.8,6.32,6.32,0,0,1,2.5-.72,4.61,4.61,0,0,1,1.82.48,5,5,0,0,1,1.9,1.47,3.89,3.89,0,0,1,.83,2.55,5.58,5.58,0,0,1-1.2,3.4,8.47,8.47,0,0,1-3.55,2.6,14.34,14.34,0,0,1-5.65,1l-.7,3.35a4,4,0,0,0,.52,1.5,5.38,5.38,0,0,0,1.7,1.9,4.93,4.93,0,0,0,3,.85,9.85,9.85,0,0,0,5.05-1.58,21.91,21.91,0,0,0,4.85-3.92A20.1,20.1,0,0,0,194.7,63,.94.94,0,0,1,195.6,64Zm-14.7-7.5a7.34,7.34,0,0,0-1.73,1.25,3.08,3.08,0,0,0-.92,1.4c-.34,1.5-.64,3-.9,4.55a10.81,10.81,0,0,0,5.8-1.53A3.84,3.84,0,0,0,185.1,59a2.94,2.94,0,0,0-.9-2.15,2.57,2.57,0,0,0-1.75-.9A3.6,3.6,0,0,0,180.9,56.45Z" transform="translate(-22.75 -19.5)"/><path class="cls-1" d="M220.1,58.25a4.33,4.33,0,0,1-1,2.57A7.5,7.5,0,0,1,216.37,63a8.38,8.38,0,0,1-3.77.85,8.12,8.12,0,0,1-4.85-1.5c-.2,1-.45,1.95-.75,2.95-.1.37-.32,1.21-.65,2.52a28.76,28.76,0,0,0-.7,3.53,5.34,5.34,0,0,1-1.4,1.72,9.78,9.78,0,0,1-2.5,1.58,7,7,0,0,1-2.85.65,6.13,6.13,0,0,1-3-.8,6.83,6.83,0,0,1-2.38-2.15,5.16,5.16,0,0,1-.92-3c.46-1.4.85-2.72,1.15-3.95s.58-2.48.85-3.75l.5-2.5a4.6,4.6,0,0,1,1.35-2.27A8.8,8.8,0,0,1,199.12,55a7.58,7.58,0,0,1,3.18-.72,10.68,10.68,0,0,1,1.7.2,3.23,3.23,0,0,1,.52-1.6,1.52,1.52,0,0,1,1.23-.45,5.26,5.26,0,0,1,1.15.15,13.58,13.58,0,0,0-.25,2.4,7.16,7.16,0,0,0,1.75,4.9,6,6,0,0,0,4.75,2A6.32,6.32,0,0,0,217,60.7a8.14,8.14,0,0,0,2.58-3.45C219.93,57.35,220.1,57.68,220.1,58.25ZM204.6,66a41.18,41.18,0,0,0,1.3-5.4,7.77,7.77,0,0,1-1.5-3.4.67.67,0,0,0-.08-.33.47.47,0,0,0-.32-.17,4.56,4.56,0,0,0-1.7-.3,5.19,5.19,0,0,0-3.2,1,4.26,4.26,0,0,0-1.7,2.4c-.1.4-.47,2-1.1,4.7-.3,1.6-.67,3.18-1.1,4.75a3.48,3.48,0,0,0,1.25,2.87,4.07,4.07,0,0,0,2.65,1,4.91,4.91,0,0,0,2.57-.85,4.37,4.37,0,0,0,1.78-1.75C203.71,69.17,204.1,67.65,204.6,66Z" transform="translate(-22.75 -19.5)"/><path class="cls-1" d="M251.15,21.88q2.7,2.37,2.7,7.17a.62.62,0,0,1-.2.45,10.38,10.38,0,0,0-4-5,11.2,11.2,0,0,0-5.92-1.5q-3.41,0-6.93,3.05A34.85,34.85,0,0,0,230,34.77,84.61,84.61,0,0,0,223.7,48.2a69.94,69.94,0,0,0-2.55,8.42Q220,61.2,218.4,68.9L218,71q3.6-4.9,9-11.15t6.15-6.25a3.57,3.57,0,0,1,2.65,1,63.32,63.32,0,0,0-8.45,8.2,49.7,49.7,0,0,0,1.67,5.45,12,12,0,0,0,2.18,3.68,4.3,4.3,0,0,0,3.35,1.52c.86,0,2-.6,3.37-1.8a20.57,20.57,0,0,0,3.88-4.7,17.66,17.66,0,0,0,2.4-6.05.87.87,0,0,1,.75.57,3.36,3.36,0,0,1,.3,1.53q0,1.65-1.85,4.72a23.87,23.87,0,0,1-4.48,5.45,7.67,7.67,0,0,1-5,2.38,5.69,5.69,0,0,1-4.88-2.58A31.42,31.42,0,0,1,225.3,65a101.38,101.38,0,0,0-7.4,9.6c-.44.67-.74,1-.9,1a1.91,1.91,0,0,1-1.08-.62,2,2,0,0,1-.72-1.08,37.82,37.82,0,0,1,1-6q1.05-5,2.57-10.88t2.78-9.4q4.8-13.5,10.47-20.8t12.53-7.3A9.61,9.61,0,0,1,251.15,21.88Z" transform="translate(-22.75 -19.5)"/><path class="cls-1" d="M280.45,76.8l-.7-.15a2.82,2.82,0,0,0-.35-1.27,1.7,1.7,0,0,0-.86-.53,20.74,20.74,0,0,0-4.29-.62c-2-.16-4.34-.23-6.9-.23-3.31,0-6.35.13-9.15.4a38.73,38.73,0,0,0-6.8,1.15c-.24,0-.5-.26-.8-.78a2.62,2.62,0,0,1-.45-1.32.34.34,0,0,1,.1-.28.81.81,0,0,1,.35-.12,11.65,11.65,0,0,0,4.17-1.48c1.18-.71,2.41-2.34,3.68-4.87a47.5,47.5,0,0,0,3.4-11.4q1.78-9.11,2.8-14a2.63,2.63,0,0,1,.37-.95,1.36,1.36,0,0,1,.68-.45A14.4,14.4,0,0,1,269,39a26.28,26.28,0,0,1,4.1-.32c.19,0,.38.23.55.6a5.18,5.18,0,0,1,.35,1.12c.06.39.06.61,0,.68a7.24,7.24,0,0,0-1.55-.22c-.7-.06-1.29-.08-1.75-.08a3.56,3.56,0,0,0-2.53.75,4,4,0,0,0-1.07,2.1q-.75,3.35-1.35,6.45-1.26,6-1.9,8.55a41.15,41.15,0,0,1-3.25,9.2A11.46,11.46,0,0,1,256,72.7c1.06-.07,2.41-.18,4-.35s2.92-.28,3.86-.35c2.73-.3,5-.52,6.77-.68s3.41-.22,4.87-.22a12.7,12.7,0,0,1,3.41.32,1.79,1.79,0,0,1,1.25,1.13A22.23,22.23,0,0,1,280.45,76.8Z" transform="translate(-22.75 -19.5)"/><path class="cls-1" d="M308.7,64q0,2-2.58,4.67A25.24,25.24,0,0,1,300,73.23a12.86,12.86,0,0,1-5.84,1.92A6.62,6.62,0,0,1,290.29,74a9,9,0,0,1-2.52-2.63,5,5,0,0,1-.87-2.15q.8-2.85,1.75-7.9l.55-2.8a3.91,3.91,0,0,1,1.45-2.08,12.42,12.42,0,0,1,2.8-1.8,6.32,6.32,0,0,1,2.5-.72,4.65,4.65,0,0,1,1.82.48,5,5,0,0,1,1.9,1.47,3.89,3.89,0,0,1,.83,2.55,5.59,5.59,0,0,1-1.21,3.4,8.38,8.38,0,0,1-3.54,2.6,14.4,14.4,0,0,1-5.66,1l-.69,3.35a4,4,0,0,0,.52,1.5,5.38,5.38,0,0,0,1.7,1.9,4.92,4.92,0,0,0,3,.85,9.85,9.85,0,0,0,5.06-1.58,21.91,21.91,0,0,0,4.85-3.92A19.73,19.73,0,0,0,307.79,63,.94.94,0,0,1,308.7,64ZM294,56.45a7.34,7.34,0,0,0-1.73,1.25,3.12,3.12,0,0,0-.93,1.4c-.33,1.5-.63,3-.89,4.55a10.81,10.81,0,0,0,5.8-1.53A3.87,3.87,0,0,0,298.2,59a2.91,2.91,0,0,0-.91-2.15,2.53,2.53,0,0,0-1.75-.9A3.61,3.61,0,0,0,294,56.45Z" transform="translate(-22.75 -19.5)"/><path class="cls-1" d="M327.59,64c0,1.33-.85,2.89-2.57,4.67a25.24,25.24,0,0,1-6.08,4.61,12.85,12.85,0,0,1-5.85,1.92,6.57,6.57,0,0,1-3.9-1.17,8.92,8.92,0,0,1-2.52-2.63,5,5,0,0,1-.88-2.15q.81-2.85,1.75-7.9l.55-2.8a4,4,0,0,1,1.45-2.08,12.89,12.89,0,0,1,2.8-1.8,6.41,6.41,0,0,1,2.5-.72,4.69,4.69,0,0,1,1.83.48,5,5,0,0,1,1.9,1.47,3.88,3.88,0,0,1,.82,2.55,5.58,5.58,0,0,1-1.2,3.4,8.41,8.41,0,0,1-3.55,2.6,14.31,14.31,0,0,1-5.65,1l-.7,3.35a4.1,4.1,0,0,0,.53,1.5,5.38,5.38,0,0,0,1.7,1.9,4.9,4.9,0,0,0,3,.85,9.82,9.82,0,0,0,5.05-1.58,21.46,21.46,0,0,0,4.85-3.92,19.5,19.5,0,0,0,3.3-4.55A.94.94,0,0,1,327.59,64Zm-14.7-7.5a7.49,7.49,0,0,0-1.72,1.25,3,3,0,0,0-.93,1.4c-.33,1.5-.63,3-.9,4.55a10.78,10.78,0,0,0,5.8-1.53A3.84,3.84,0,0,0,317.09,59a2.94,2.94,0,0,0-.9-2.15,2.55,2.55,0,0,0-1.75-.9A3.64,3.64,0,0,0,312.89,56.45Z" transform="translate(-22.75 -19.5)"/></svg>